<?xml version="1.0" standalone="no"?>
<!DOCTYPE svg PUBLIC "-//W3C//DTD SVG 20010904//EN"
 "http://www.w3.org/TR/2001/REC-SVG-20010904/DTD/svg10.dtd">
<svg version="1.0" xmlns="http://www.w3.org/2000/svg"
 width="2949.000000pt" height="2876.000000pt" viewBox="0 0 2949.000000 2876.000000"
 preserveAspectRatio="xMidYMid meet">

<g transform="translate(0.000000,2876.000000) scale(0.100000,-0.100000)"
fill="#000000" stroke="none">
<path d="M14670 28501 l0 -260 80 -56 80 -56 0 -350 0 -349 -697 -2 -696 -3
-18 -90 c-108 -561 -461 -1325 -972 -2103 -67 -102 -116 -187 -111 -191 5 -4
130 -82 278 -172 l269 -164 -880 -3 -881 -2 -6 -88 c-26 -338 -67 -654 -117
-907 -169 -853 -475 -1552 -885 -2019 -98 -112 -190 -186 -307 -248 -110 -57
-197 -131 -197 -166 l0 -22 375 0 374 0 5 -32 c3 -18 41 -1007 86 -2198 l80
-2165 -35 -71 c-48 -99 -66 -171 -72 -299 -7 -136 11 -241 69 -398 22 -62 48
-134 58 -162 14 -40 20 -108 29 -345 18 -470 19 -452 -34 -557 -24 -49 -65
-111 -89 -138 -54 -57 -51 -57 -224 11 -64 25 -150 54 -191 64 -87 22 -111 42
-150 124 -43 91 -82 138 -150 184 -76 51 -155 77 -307 102 -159 27 -339 71
-446 110 -67 24 -100 43 -137 78 -76 71 -87 107 -116 363 -31 267 -30 275 65
363 112 103 229 142 455 153 144 6 198 -3 242 -41 24 -21 28 -31 26 -73 -3
-90 -109 -337 -159 -370 -34 -22 -100 -20 -224 6 -114 25 -168 26 -198 5 -35
-25 -28 -70 15 -92 29 -16 361 -64 441 -64 86 -1 126 27 174 118 46 88 101
246 123 353 22 109 18 240 -8 269 -32 35 -260 73 -457 75 l-125 2 -150 -80
c-82 -43 -186 -104 -230 -134 -95 -65 -133 -80 -200 -80 -69 -1 -328 35 -353
48 -39 21 -72 78 -117 202 -67 184 -124 258 -224 294 -66 23 -130 18 -300 -21
-452 -105 -639 -190 -671 -303 -5 -20 -10 -67 -11 -106 0 -38 -4 -110 -8 -158
-11 -120 0 -183 39 -221 28 -28 37 -31 111 -35 45 -2 108 2 141 9 130 25 319
100 363 144 31 32 34 82 5 91 -24 8 -36 4 -165 -45 -201 -77 -299 -100 -325
-74 -17 17 -32 126 -27 189 10 105 34 165 86 216 41 40 57 49 141 72 215 58
395 76 493 48 67 -19 114 -76 171 -208 54 -124 102 -195 147 -219 18 -9 93
-25 168 -35 310 -45 411 -94 411 -202 0 -40 -7 -49 -89 -118 -37 -32 -39 -27
49 -189 127 -235 208 -356 271 -403 18 -12 68 -26 144 -38 257 -42 492 -91
535 -111 28 -14 110 -85 216 -188 177 -171 197 -186 559 -424 230 -150 241
-169 234 -391 -4 -154 -4 -466 0 -690 4 -189 -7 -241 -74 -355 -43 -75 -61
-123 -150 -402 -51 -163 -83 -216 -144 -248 -51 -25 -86 -25 -111 0 -24 24
-34 49 -62 150 -31 113 -47 134 -130 166 -79 30 -108 53 -108 86 0 40 22 143
37 173 18 38 141 134 303 236 236 150 249 160 282 207 31 44 33 52 32 127 -1
53 -10 114 -28 180 -22 80 -29 133 -35 270 -9 186 -25 246 -79 298 -52 50 -85
56 -268 54 -196 -2 -199 -1 -354 103 -121 81 -191 114 -229 105 -37 -8 -52
-31 -79 -120 -41 -137 -87 -185 -261 -276 -205 -107 -244 -174 -178 -304 33
-67 197 -274 292 -371 50 -50 115 -105 145 -122 49 -28 64 -32 135 -32 96 0
249 22 358 51 65 18 87 30 132 71 59 53 118 157 130 226 10 59 -10 114 -60
169 -105 118 -294 163 -432 103 -49 -21 -78 -60 -69 -93 3 -14 26 -43 51 -66
58 -53 91 -55 139 -6 29 29 43 35 78 35 84 0 168 -64 168 -128 0 -67 -106
-158 -237 -203 -102 -35 -228 -34 -303 3 -30 15 -78 48 -107 73 -77 68 -263
303 -263 332 0 34 40 71 135 126 104 60 135 93 198 212 29 54 60 103 69 109
21 13 67 -8 144 -65 30 -22 87 -58 127 -79 87 -48 139 -52 268 -18 l86 22 34
-20 c69 -41 104 -213 104 -521 l0 -192 -50 -51 c-85 -87 -249 -183 -420 -246
-161 -60 -190 -117 -190 -379 0 -201 18 -297 97 -526 72 -212 80 -244 68 -308
-17 -92 -77 -174 -152 -205 -54 -23 -80 -9 -111 56 -13 29 -30 71 -37 93 -18
58 -65 147 -95 183 -14 17 -46 40 -71 52 -39 19 -57 22 -122 18 -93 -6 -135
-20 -323 -109 -80 -38 -155 -69 -168 -69 -14 0 -43 21 -79 59 -76 79 -129 94
-241 70 -68 -14 -157 -75 -371 -250 -222 -182 -263 -209 -321 -209 -56 0 -132
35 -210 97 -67 52 -136 133 -145 170 -14 54 65 191 166 287 59 57 62 58 103
52 57 -9 147 -55 170 -88 25 -33 18 -65 -25 -114 -42 -47 -82 -64 -136 -57
-60 8 -102 -12 -102 -48 0 -65 118 -97 204 -54 57 27 139 114 171 179 22 44
26 65 22 98 -8 57 -53 117 -116 155 -113 68 -244 67 -347 -2 -115 -76 -234
-291 -234 -422 0 -50 18 -89 69 -152 l36 -44 -85 6 c-262 20 -301 20 -296 6 3
-8 66 -306 141 -664 75 -357 138 -658 141 -667 5 -17 -27 -18 -570 -18 -316 0
-577 3 -579 8 -3 4 -27 404 -53 890 -32 575 -52 882 -59 882 -6 0 -109 -33
-230 -73 -179 -60 -220 -77 -222 -93 -2 -10 37 -376 85 -813 l88 -794 -165 6
c-92 4 -289 10 -439 13 -150 4 -274 10 -276 13 -2 3 14 267 35 585 22 319 37
581 35 584 -3 2 -110 -18 -238 -45 l-233 -49 -6 -134 c-4 -74 -7 -311 -8 -527
-1 -267 -4 -394 -12 -398 -6 -4 -226 -1 -489 6 l-478 13 -6 65 c-4 36 -20 271
-37 521 -17 250 -32 456 -34 458 -1 1 -111 20 -244 41 -153 24 -241 34 -240
27 0 -6 30 -254 67 -551 l68 -540 -26 -3 c-42 -6 -744 18 -750 26 -5 6 13 734
34 1353 l7 197 -238 -60 c-131 -33 -239 -60 -240 -62 -1 -1 6 -321 16 -711 11
-391 18 -711 17 -712 -3 -3 -751 18 -801 23 l-51 5 78 511 c43 281 76 514 73
516 -6 7 -461 -49 -475 -58 -5 -3 -66 -595 -136 -1316 -69 -720 -127 -1315
-129 -1321 -3 -9 -28 -13 -78 -13 -41 0 -102 -3 -136 -6 l-61 -7 0 -4443 0
-4444 13830 0 13830 0 0 2560 c0 1408 4 2560 8 2560 5 0 55 -7 113 -16 113
-17 189 -15 215 7 13 11 15 27 12 89 -4 62 -17 105 -71 245 -97 251 -175 553
-211 810 -28 205 -39 454 -33 793 4 281 9 365 37 597 42 361 40 511 -11 690
l-34 120 -1 410 c0 226 -4 469 -8 540 -7 110 -5 154 14 290 29 203 31 389 6
500 -10 44 -44 136 -76 205 -108 230 -132 334 -149 622 -14 235 -20 295 -37
423 -14 99 -14 117 0 178 27 116 76 196 201 326 177 184 531 407 774 488 l82
27 57 -19 c132 -46 454 -270 621 -433 97 -96 109 -122 97 -205 -15 -97 -121
-271 -231 -376 -135 -130 -185 -118 -284 67 -73 137 -132 192 -204 192 -81 0
-108 -102 -54 -206 33 -65 127 -183 198 -249 105 -98 206 -151 261 -138 69 18
232 172 337 320 171 239 228 467 157 618 -30 63 -56 93 -130 150 -33 25 -131
109 -219 188 -316 283 -438 352 -637 364 -77 5 -111 2 -180 -16 -155 -39 -256
-96 -526 -298 -429 -321 -617 -533 -696 -783 -20 -64 -23 -96 -23 -220 0 -167
17 -249 90 -429 100 -248 131 -400 122 -610 -6 -154 -32 -264 -93 -388 -36
-75 -125 -183 -150 -183 -8 0 -74 23 -147 52 -73 28 -165 59 -206 69 -87 21
-111 41 -150 123 -44 92 -86 143 -152 186 -86 55 -145 75 -315 105 -414 72
-586 146 -644 278 -20 46 -61 344 -64 463 -1 65 2 76 30 115 17 24 63 67 101
95 111 80 243 113 452 114 215 0 259 -48 201 -220 -32 -97 -95 -226 -124 -255
-21 -21 -34 -25 -83 -25 -32 0 -96 9 -143 20 -94 22 -181 26 -211 10 -39 -22
-18 -85 35 -104 35 -12 364 -56 423 -56 101 0 147 44 212 201 68 163 95 278
96 405 0 157 1 156 -225 190 -63 10 -176 17 -250 18 l-135 0 -151 -81 c-84
-44 -180 -100 -214 -124 -90 -64 -117 -77 -174 -84 -54 -7 -330 25 -378 43
-42 17 -76 71 -123 203 -67 184 -131 266 -232 300 -83 27 -362 -27 -665 -127
-161 -54 -231 -93 -272 -151 -27 -40 -30 -52 -38 -170 -21 -298 -16 -335 51
-380 81 -55 328 -10 541 97 62 31 80 52 80 94 0 42 -38 43 -138 6 -303 -113
-348 -121 -379 -73 -25 37 -24 217 1 283 25 66 62 117 97 136 40 20 168 57
279 80 102 21 279 24 332 6 55 -20 110 -89 157 -200 92 -213 117 -233 321
-262 241 -33 362 -77 395 -140 31 -61 11 -120 -54 -160 -23 -14 -44 -33 -47
-42 -10 -34 219 -435 301 -526 47 -53 75 -66 160 -77 139 -17 532 -98 569
-117 23 -11 115 -94 206 -182 154 -152 179 -171 380 -303 307 -202 352 -234
377 -272 42 -62 46 -100 38 -331 -10 -260 -10 -206 0 -497 9 -270 3 -323 -46
-414 -68 -126 -100 -203 -144 -354 -72 -249 -111 -320 -190 -350 -37 -15 -50
-16 -74 -5 -35 14 -52 47 -81 155 -29 105 -50 138 -102 160 -152 64 -152 63
-126 189 20 99 18 96 134 187 72 56 179 128 299 199 172 103 224 174 211 289
-4 33 -18 104 -32 158 -20 75 -27 137 -33 270 -7 162 -10 175 -37 229 -16 32
-46 72 -67 89 l-39 30 -175 2 c-104 1 -194 6 -220 14 -24 6 -101 50 -171 96
-212 139 -259 137 -299 -14 -34 -133 -87 -190 -260 -282 -131 -69 -178 -106
-199 -157 -19 -46 -17 -71 10 -129 48 -104 269 -374 377 -461 104 -83 117 -88
239 -81 121 7 252 29 344 58 144 44 271 241 236 367 -13 49 -84 131 -145 166
-66 39 -158 59 -237 53 -97 -8 -178 -55 -178 -103 0 -42 89 -124 134 -124 8 0
33 16 56 35 33 28 50 35 83 35 86 -1 167 -63 167 -128 0 -92 -194 -212 -370
-228 -157 -15 -257 54 -469 321 -39 50 -71 100 -71 111 0 36 38 72 135 129
107 63 138 97 197 210 49 96 64 115 93 115 11 0 64 -30 116 -66 183 -128 241
-143 390 -102 128 35 164 13 198 -122 25 -101 41 -263 41 -430 0 -126 -2 -140
-23 -171 -61 -91 -260 -213 -480 -293 -89 -33 -133 -88 -156 -194 -16 -76 -14
-282 5 -385 19 -110 73 -300 115 -404 36 -92 48 -199 29 -259 -30 -90 -114
-174 -176 -174 -43 0 -69 32 -104 129 -81 221 -141 281 -280 281 -88 0 -177
-28 -328 -104 -181 -90 -201 -92 -247 -26 -35 50 -112 90 -175 90 -115 0 -183
-39 -450 -259 -264 -218 -294 -232 -398 -193 -66 25 -127 69 -200 142 -76 77
-89 105 -72 164 25 91 167 267 226 282 55 14 183 -45 213 -97 13 -23 12 -30
-5 -64 -10 -21 -36 -52 -56 -68 -33 -27 -43 -29 -106 -28 -55 1 -74 -3 -93
-18 -21 -17 -22 -22 -11 -45 17 -38 92 -70 141 -61 84 15 192 111 238 211 19
43 23 63 18 95 -23 134 -239 238 -385 185 -25 -9 -49 -18 -54 -19 -5 -1 -22
31 -39 70 -18 42 -38 75 -48 78 -10 4 -96 -27 -200 -70 -100 -41 -184 -73
-186 -71 -3 2 -11 51 -19 108 -20 151 -23 166 -37 171 -6 2 -79 -5 -161 -17
-113 -16 -151 -25 -160 -38 -7 -12 -4 -64 13 -193 13 -97 22 -177 20 -179 -2
-1 -103 -43 -224 -93 -121 -50 -224 -97 -229 -105 -11 -19 83 -256 108 -270
11 -6 69 13 201 68 102 42 187 75 189 73 4 -4 106 -745 106 -770 0 -17 -93 -6
-545 64 l-210 32 -6 265 c-7 308 -15 348 -100 474 -112 168 -288 254 -499 243
-118 -5 -175 -25 -321 -107 -238 -135 -339 -293 -339 -529 0 -67 -3 -91 -13
-91 -26 0 -568 153 -584 165 -4 3 83 825 88 828 2 2 102 -12 222 -31 155 -25
221 -32 228 -25 6 6 22 71 36 143 20 110 22 135 11 145 -7 7 -113 28 -236 48
-123 19 -225 37 -227 39 -2 2 3 79 13 171 11 112 13 170 6 177 -16 16 -310 36
-327 22 -10 -8 -18 -56 -27 -152 -8 -77 -17 -145 -21 -151 -6 -10 -56 -5 -211
20 -111 17 -211 31 -220 31 -25 0 -33 -21 -58 -159 -20 -112 -21 -125 -7 -136
8 -6 112 -26 231 -45 119 -18 220 -36 225 -40 9 -5 -63 -737 -73 -748 -8 -7
-215 105 -282 154 -83 59 -249 218 -389 375 l-117 129 97 397 c128 525 132
587 44 763 -49 98 -132 184 -223 231 -36 19 -66 37 -66 41 0 13 121 343 129
350 4 5 44 -8 89 -27 45 -19 88 -32 96 -29 8 3 23 28 35 57 26 62 26 62 -86
107 -46 19 -83 37 -83 41 0 5 9 31 20 59 31 79 29 85 -40 109 -34 11 -67 18
-74 15 -6 -2 -21 -29 -31 -60 -10 -30 -22 -57 -26 -60 -4 -2 -45 11 -90 30
-46 19 -88 32 -94 29 -7 -2 -23 -26 -35 -54 -29 -61 -27 -64 85 -110 44 -17
81 -33 83 -35 3 -2 -102 -298 -132 -374 -5 -11 -26 -16 -84 -17 -94 -3 -297
-58 -386 -106 -33 -17 -84 -54 -113 -81 -30 -27 -58 -45 -62 -40 -5 5 -51 70
-103 144 -524 746 -1189 1759 -1786 2720 l-164 265 7 105 c15 242 25 310 84
550 62 248 91 408 91 496 0 26 -7 102 -17 168 -20 150 -11 279 42 596 25 147
39 270 45 390 7 147 13 194 39 290 88 326 86 311 86 500 l0 175 -43 127 c-83
246 -85 287 -46 858 l26 385 31 59 c103 194 450 422 847 556 164 55 253 72
299 56 109 -37 387 -276 557 -479 124 -147 135 -187 84 -295 -77 -162 -300
-372 -396 -372 -60 0 -80 27 -155 214 -35 87 -96 160 -143 172 -69 17 -125
-50 -113 -138 12 -88 112 -259 220 -375 109 -116 182 -146 260 -107 142 73
340 259 449 424 91 137 124 236 116 354 -6 93 -31 139 -127 241 -42 44 -132
144 -200 223 -264 307 -391 401 -588 433 -130 21 -297 -11 -465 -89 -104 -49
-389 -212 -528 -303 -97 -63 -105 -67 -108 -46 -2 12 60 954 138 2093 77 1139
140 2078 140 2087 0 44 205 164 433 252 65 25 132 52 149 61 28 14 29 17 14
32 -8 9 -53 28 -98 43 l-82 26 -51 89 c-229 398 -428 1179 -569 2234 -28 206
-72 591 -82 716 l-7 81 -241 6 c-132 4 -414 10 -624 13 -265 5 -385 10 -387
18 -4 10 -165 1737 -165 1763 0 6 68 61 150 123 138 103 150 115 150 144 0 17
-36 339 -80 716 -43 377 -76 688 -72 691 4 4 67 12 141 17 73 6 134 12 135 14
3 4 116 541 116 551 0 4 -313 7 -695 7 l-695 0 0 -259z m-5604 -16533 c27 -24
55 -71 102 -168 76 -161 102 -253 102 -366 0 -101 -18 -153 -67 -190 -48 -36
-89 -104 -118 -194 -38 -117 -74 -200 -75 -170 -4 118 -58 1011 -61 1015 -3 3
-46 -9 -95 -25 l-88 -30 49 50 c113 115 184 137 251 78z m-738 -12 c15 -8 51
-42 80 -75 29 -34 71 -71 93 -84 45 -26 48 -34 14 -43 -17 -4 -25 -13 -25 -27
0 -12 14 -149 31 -305 17 -156 30 -284 28 -286 -8 -5 -1052 -267 -1055 -264
-1 2 -28 170 -59 373 -30 204 -58 383 -61 398 l-6 28 69 -34 c201 -102 299
-72 672 207 121 91 167 121 189 125 2 1 15 -5 30 -13z m266 -1198 c10 -90 20
-181 23 -204 l5 -41 -138 -80 c-231 -134 -479 -271 -670 -370 l-182 -94 -6 33
c-12 69 -126 818 -126 831 0 15 33 19 615 62 165 13 336 23 381 24 l81 1 17
-162z m-1439 -360 c37 -154 123 -594 117 -600 -31 -30 -589 -250 -797 -313
-138 -42 -358 -95 -396 -95 -26 0 -26 2 -32 83 -13 167 -50 888 -46 891 4 4
961 52 1086 55 57 1 63 -1 68 -21z m-1486 -535 c29 -269 54 -497 55 -508 1
-17 -9 -21 -79 -31 -229 -33 -996 -116 -1003 -109 -4 4 67 1087 71 1091 2 3
763 40 852 43 l50 1 54 -487z m-1373 -125 c-4 -304 -9 -555 -12 -557 -4 -4
-771 -70 -824 -71 l-36 0 -38 565 c-21 311 -37 567 -35 569 3 3 768 40 908 45
l44 1 -7 -552z m-1352 470 c6 -29 136 -1090 136 -1110 0 -19 -2 -19 -510 -53
-201 -14 -401 -28 -444 -31 l-80 -6 18 26 c15 24 19 86 33 584 9 306 19 560
22 564 3 4 184 16 401 26 217 11 401 20 407 21 7 0 15 -9 17 -21z m-1204 -125
c1 -49 7 -313 14 -588 8 -275 13 -501 13 -502 -1 -1 -196 -13 -432 -27 -237
-15 -491 -30 -565 -35 -74 -4 -138 -5 -141 -2 -3 3 35 274 85 601 l91 595 40
3 c60 5 760 39 833 41 l62 1 0 -87z m22064 -2970 c-30 -70 -44 -126 -44 -178
0 -45 6 -62 42 -115 51 -77 165 -170 267 -219 64 -30 87 -36 160 -39 83 -3 88
-2 169 37 95 47 155 86 344 227 75 56 146 105 157 109 31 9 70 -17 133 -88 92
-104 177 -131 273 -86 25 12 88 61 140 110 130 120 175 131 252 57 41 -40 159
-293 178 -384 18 -83 19 -198 4 -245 -6 -19 -34 -56 -61 -83 -46 -45 -118
-169 -118 -203 0 -7 -12 -42 -26 -78 l-26 -65 -47 5 c-25 3 -215 21 -421 41
-206 19 -575 57 -820 84 -685 77 -640 70 -645 94 -4 17 -118 861 -128 940 -2
16 18 29 108 67 61 26 113 48 118 48 4 1 0 -16 -9 -36z"/>
<path d="M11678 28188 c-49 -22 -88 -44 -88 -48 0 -4 27 -13 60 -19 l60 -12 0
-41 0 -41 23 21 c13 12 28 22 33 22 5 0 22 -21 37 -46 l28 -46 32 25 32 25 40
-34 c46 -39 85 -43 140 -17 l35 17 38 -36 37 -36 40 34 40 35 22 -25 c28 -33
33 -33 33 4 0 33 1 33 88 21 28 -4 52 -4 52 1 0 5 -28 39 -62 76 -34 37 -63
69 -64 70 -1 2 -44 -26 -95 -62 -109 -77 -121 -76 -140 11 l-12 58 -10 -38
c-7 -27 -13 -37 -24 -33 -8 3 -32 6 -54 6 -38 0 -39 1 -39 38 l-1 37 -27 -47
c-15 -27 -31 -47 -36 -45 -6 2 -33 40 -60 85 -28 45 -55 81 -61 81 -5 0 -49
-19 -97 -41z"/>
<path d="M11384 26538 c-24 -51 -52 -97 -61 -102 -13 -7 -26 1 -60 37 l-44 47
7 -35 c5 -29 3 -36 -12 -40 -11 -3 -32 -12 -47 -20 -27 -14 -28 -13 -47 18
l-20 32 0 -57 c0 -36 -4 -58 -11 -58 -6 0 -48 20 -93 45 -46 25 -86 45 -89 45
-13 0 -127 -165 -117 -168 6 -2 31 3 57 12 61 21 62 21 74 -14 6 -16 14 -30
19 -30 4 0 13 14 20 30 7 17 15 30 18 30 3 0 25 -12 49 -26 25 -14 46 -24 48
-22 1 1 10 18 19 36 14 27 22 33 39 28 85 -23 95 -21 142 29 l44 48 39 -11
c57 -17 58 -17 72 34 14 48 18 49 76 27 14 -5 16 -3 10 13 -16 39 -11 47 44
70 30 12 54 25 53 30 -2 8 -149 64 -170 64 -8 0 -34 -42 -59 -92z"/>
<path d="M16380 26164 c0 -5 21 -27 46 -49 l46 -41 -28 -33 -29 -34 43 6 42 7
0 -59 0 -60 41 2 c41 2 42 2 55 -44 17 -58 33 -71 98 -84 51 -10 51 -10 60
-59 l10 -48 49 7 c55 7 66 -1 67 -45 l1 -25 22 27 23 28 48 -40 c57 -47 70
-50 62 -12 -3 15 -11 58 -17 96 l-12 69 -113 -6 c-136 -7 -144 -2 -113 75 24
63 24 66 -5 39 l-25 -23 -40 33 c-37 32 -39 35 -25 56 22 34 18 35 -35 9 -27
-14 -51 -22 -55 -19 -3 4 -6 52 -6 108 l0 102 -72 7 c-40 4 -88 9 -105 13 -18
3 -33 1 -33 -3z"/>
<path d="M18172 25548 l56 -53 -24 -28 c-33 -39 -30 -46 19 -44 l42 2 3 -62 3
-63 46 3 45 2 15 -50 c17 -59 52 -95 96 -96 52 -2 82 -14 85 -34 2 -11 8 -36
13 -56 l9 -37 59 13 c65 13 71 10 71 -39 0 -36 12 -38 32 -5 13 21 23 28 31
22 7 -5 33 -26 58 -46 50 -40 73 -47 65 -19 -3 9 -12 59 -21 110 l-17 92 -47
-1 c-25 0 -82 -4 -126 -8 -68 -7 -83 -6 -98 9 -17 16 -17 19 3 74 12 32 20 59
18 62 -3 2 -15 -7 -28 -21 l-23 -25 -37 34 c-20 18 -43 35 -51 38 -10 3 -8 12
9 35 12 17 22 34 22 37 0 3 -24 -7 -53 -24 -30 -16 -59 -30 -65 -30 -9 0 -12
35 -12 119 l0 119 -32 6 c-18 3 -76 8 -128 11 l-95 6 57 -53z"/>
<path d="M17607 25557 l-78 -10 2 -110 c3 -129 -4 -141 -68 -118 -21 8 -45 16
-53 19 -12 4 -11 1 3 -15 23 -26 22 -32 -14 -72 l-31 -34 -30 17 -29 18 25
-51 c14 -28 26 -53 26 -57 0 -3 -50 -4 -110 -2 -69 2 -110 -1 -110 -7 -1 -5
-7 -52 -14 -103 -7 -51 -10 -95 -6 -97 4 -2 26 16 50 40 l43 44 25 -20 c35
-27 42 -24 35 16 l-6 35 61 0 60 0 -5 39 -5 38 51 13 c59 14 91 47 91 94 0 45
9 53 63 61 l48 7 -7 54 c-6 52 -5 54 17 54 13 0 30 4 38 9 11 7 9 11 -8 20
-29 16 -26 32 10 67 17 16 35 37 40 47 11 20 9 20 -114 4z"/>
<path d="M9583 25412 c-57 -14 -103 -29 -103 -33 0 -4 27 -17 61 -29 47 -18
59 -26 53 -39 -4 -9 -9 -27 -12 -39 -5 -24 -4 -24 27 -8 17 9 35 14 40 12 5
-3 14 -26 21 -51 7 -25 14 -45 16 -45 2 0 20 8 40 17 l36 18 21 -30 c45 -61
56 -68 106 -62 25 3 53 8 62 12 13 5 23 -5 40 -34 25 -46 42 -50 79 -21 33 26
48 25 62 -5 6 -14 15 -25 19 -25 5 0 11 11 15 25 7 30 6 30 79 5 32 -11 60
-18 63 -16 2 3 -19 43 -47 90 l-52 85 -57 -25 c-150 -67 -151 -67 -167 -54
-10 8 -15 31 -15 69 l-1 56 -17 -32 c-16 -30 -18 -31 -42 -18 -14 8 -36 14
-49 15 -22 0 -23 3 -18 38 l6 37 -37 -42 c-21 -24 -40 -43 -44 -43 -3 0 -22
45 -43 100 -21 55 -38 100 -39 99 0 -1 -47 -13 -103 -27z"/>
<path d="M10835 24559 c-33 -5 -75 -12 -93 -15 l-33 -5 2 -110 c2 -71 -2 -114
-9 -121 -8 -8 -25 -6 -67 10 -57 22 -69 18 -35 -13 19 -17 19 -18 -9 -44 -15
-14 -30 -33 -33 -41 -4 -12 -8 -12 -31 3 -38 25 -40 22 -15 -25 13 -24 23 -47
23 -52 0 -6 -45 -9 -106 -7 l-107 3 -12 -89 c-6 -48 -14 -96 -16 -105 -8 -29
7 -21 56 27 l46 45 24 -25 c33 -35 39 -32 33 16 l-6 41 59 -3 59 -4 0 39 c0
39 1 40 53 55 61 18 82 41 82 87 0 40 22 64 58 64 46 0 54 11 46 68 l-7 52 37
0 c42 0 47 12 10 29 l-26 11 46 54 c45 53 54 67 39 65 -5 -1 -35 -5 -68 -10z"/>
<path d="M17630 23912 c-68 -43 -125 -83 -128 -90 -2 -8 12 -12 46 -12 27 0
70 -3 96 -6 l46 -7 0 -53 c0 -30 4 -54 9 -54 5 0 24 17 41 38 l31 37 27 -30
c15 -17 39 -46 53 -65 l26 -35 42 38 c22 20 45 37 51 37 5 0 35 -18 66 -40 74
-52 110 -53 184 -5 30 19 59 35 63 35 5 0 33 -20 64 -45 l56 -46 43 48 c24 26
43 51 44 56 1 16 28 5 55 -23 16 -16 32 -30 37 -30 4 0 8 20 8 45 l0 45 100 0
c55 0 100 4 100 8 0 8 -180 169 -208 186 -9 5 -50 -27 -126 -98 -83 -77 -121
-106 -139 -106 -32 0 -35 6 -68 100 l-27 75 -7 -52 -7 -51 -79 0 -79 0 -5 37
c-4 20 -7 43 -8 51 -2 8 -16 -18 -33 -59 -16 -41 -35 -76 -41 -78 -6 -2 -53
48 -105 111 -51 63 -96 115 -99 115 -3 1 -61 -34 -129 -77z"/>
<path d="M9608 22781 c-38 -54 -70 -91 -80 -91 -10 0 -33 23 -53 53 l-36 52 6
-36 c7 -36 6 -36 -32 -42 -21 -3 -46 -8 -55 -12 -13 -5 -19 0 -24 19 -10 40
-21 31 -28 -24 -4 -27 -10 -50 -14 -50 -4 0 -45 30 -90 67 l-84 66 -76 -76
c-42 -42 -74 -79 -71 -82 3 -3 31 0 62 6 65 12 77 8 77 -26 0 -36 16 -38 37
-5 l19 30 43 -37 44 -37 18 22 c9 12 19 28 22 35 3 9 11 9 38 -2 19 -7 50 -16
70 -18 32 -4 43 0 77 32 l41 36 41 -21 c22 -11 45 -18 50 -15 6 4 19 24 31 46
20 40 21 40 44 25 31 -20 49 -20 41 -1 -3 8 -9 21 -12 29 -4 10 12 17 61 26
36 7 67 16 70 20 2 4 -36 28 -85 54 l-89 47 -63 -90z"/>
</g>
</svg>
